<svg width="24" height="24" viewBox="0 0 24 24" fill="none" xmlns="http://www.w3.org/2000/svg">
<path d="M4.75021 21H18.7977C18.9308 21 19.0597 20.9529 19.1613 20.8669C19.2629 20.7809 19.3307 20.6616 19.3527 20.5303L21.0402 10.4053C21.0537 10.3247 21.0495 10.2421 21.0278 10.1633C21.0061 10.0845 20.9675 10.0113 20.9147 9.94896C20.8618 9.88659 20.796 9.83648 20.7219 9.80212C20.6477 9.76775 20.5669 9.74997 20.4852 9.75H3.06271C2.98097 9.74997 2.90021 9.76775 2.82604 9.80212C2.75187 9.83648 2.68609 9.88659 2.63326 9.94896C2.58043 10.0113 2.54183 10.0845 2.52015 10.1633C2.49847 10.2421 2.49422 10.3247 2.50771 10.4053L4.19521 20.5303C4.21718 20.6616 4.285 20.7809 4.38663 20.8669C4.48825 20.9529 4.61708 21 4.75021 21Z" stroke="white" stroke-opacity="0.75" stroke-width="1.3"/>
<path d="M7.08594 9.75V7.875C7.08594 7.37772 7.28348 6.90081 7.63511 6.54917C7.98674 6.19754 8.46366 6 8.96094 6H14.5859C15.0832 6 15.5601 6.19754 15.9118 6.54917C16.2634 6.90081 16.4609 7.37772 16.4609 7.875V9.75" stroke="white" stroke-opacity="0.75" stroke-width="1.3"/>
</svg>
