<svg width="24" height="24" viewBox="0 0 24 24" fill="none" xmlns="http://www.w3.org/2000/svg">
<path d="M4.75021 20H18.7977C18.9308 20 19.0597 19.9529 19.1613 19.8669C19.2629 19.7809 19.3307 19.6616 19.3527 19.5303L21.0402 9.40531C21.0537 9.32469 21.0494 9.2421 21.0278 9.16329C21.0061 9.08448 20.9675 9.01134 20.9147 8.94896C20.8618 8.88659 20.796 8.83648 20.7219 8.80212C20.6477 8.76775 20.5669 8.74997 20.4852 8.75H3.06271C2.98097 8.74997 2.90021 8.76775 2.82604 8.80212C2.75187 8.83648 2.68609 8.88659 2.63326 8.94896C2.58043 9.01134 2.54183 9.08448 2.52015 9.16329C2.49847 9.2421 2.49422 9.32469 2.50771 9.40531L4.19521 19.5303C4.21718 19.6616 4.285 19.7809 4.38663 19.8669C4.48825 19.9529 4.61708 20 4.75021 20Z" fill="white"/>
<path d="M7.08594 8.75V6.875C7.08594 6.37772 7.28348 5.90081 7.63511 5.54917C7.98674 5.19754 8.46366 5 8.96094 5H14.5859C15.0832 5 15.5601 5.19754 15.9118 5.54917C16.2634 5.90081 16.4609 6.37772 16.4609 6.875V8.75" stroke="white" stroke-width="1.3"/>
</svg>
