<svg width="24" height="25" viewBox="0 0 24 25" fill="none" xmlns="http://www.w3.org/2000/svg">
<path d="M11.9988 1.5C11.7826 1.5 11.5676 1.58022 11.3913 1.7409L1.11013 11.1125C0.98058 11.2312 0.962582 11.4413 1.07075 11.5826C1.18013 11.724 1.37206 11.743 1.50161 11.6243L11.7792 2.25525C11.9069 2.13858 12.0919 2.13858 12.2196 2.25525L22.4984 11.6256C22.5552 11.6776 22.6251 11.7024 22.6941 11.7024C22.7815 11.7024 22.8688 11.6626 22.9293 11.5839C23.0374 11.4426 23.0194 11.2319 22.8899 11.1139L21.1664 9.54344V4.83223C21.1664 4.46421 20.8926 4.16552 20.5553 4.16552H19.9442C19.6069 4.16552 19.3331 4.46421 19.3331 4.83223V7.87147L12.6075 1.7409C12.4312 1.58022 12.215 1.5 11.9988 1.5ZM12 2.92587L2.83361 11.2805V21.4999C2.83361 22.6046 3.6543 23.5 4.66688 23.5H18.8748C20.1404 23.5 21.1664 22.3806 21.1664 20.9999V11.2805L12 2.92587ZM9.96263 14.1661H14.0362C14.599 14.1661 15.0555 14.6641 15.0555 15.2782V22.8333H8.94454V15.2782C8.94454 14.6641 9.40042 14.1661 9.96263 14.1661Z" fill="white"/>
</svg>
